<svg xmlns="http://www.w3.org/2000/svg" width="92" height="21" viewBox="0 0 92 21">
  <g fill="none" fill-rule="evenodd">
    <path fill="#FFFFFF" d="M2.322 16L3.816 16 3.816 8.512 6.588 8.512 6.588 7.234 3.816 7.234 3.816 6.514C3.816 5.164 4.41 4.57 5.364 4.57 5.868 4.57 6.246 4.75 6.732 5.038L7.344 3.94C6.714 3.49 6.03 3.292 5.328 3.292 3.474 3.292 2.322 4.48 2.322 6.514L2.322 7.234.594 7.234.594 8.512 2.322 8.512 2.322 16zM2.322 16L2.322 16.018 2.304 16 2.322 16zM7.434 11.572C7.434 8.818 9.396 6.91 12.042 6.91 14.742 6.91 16.686 8.818 16.686 11.572 16.686 14.326 14.706 16.216 12.042 16.216 9.378 16.216 7.434 14.326 7.434 11.572zM15.21 11.572C15.21 9.61 13.842 8.278 12.06 8.278 10.26 8.278 8.892 9.61 8.892 11.572 8.892 13.498 10.242 14.83 12.042 14.83 13.878 14.83 15.21 13.498 15.21 11.572zM20.178 7.126L18.81 7.126 18.81 16 20.286 16 20.286 11.032C20.286 9.412 21.474 8.368 22.896 8.368 23.526 8.368 23.958 8.53 24.444 8.872L25.11 7.612C24.552 7.216 23.814 6.892 23.04 6.91 22.032 6.91 20.952 7.27 20.304 8.422L20.178 7.126zM57.14 15.676C57.23 15.982 57.536 16.108 57.842 16.108 58.166 16.108 58.472 15.964 58.562 15.676L62.306 3.472C62.306 3.436 62.324 3.4 62.324 3.364 62.324 3.076 61.928 2.842 61.604 2.842 61.406 2.842 61.226 2.932 61.154 3.148L57.842 14.2 54.512 3.148C54.458 2.932 54.26 2.842 54.044 2.842 53.738 2.842 53.36 3.04 53.36 3.346 53.36 3.382 53.36 3.436 53.378 3.472L57.14 15.676zM66.464 16.126C68.318 16.126 69.884 14.542 69.884 12.742L69.884 7.918C69.884 7.684 69.632 7.486 69.308 7.486 68.984 7.486 68.714 7.684 68.714 7.918L68.714 12.742C68.714 13.93 67.706 15.046 66.464 15.046 65.204 15.046 64.214 13.912 64.214 12.742L64.214 7.936C64.214 7.72 63.944 7.486 63.638 7.486 63.296 7.486 63.044 7.72 63.044 7.936L63.044 12.742C63.044 14.524 64.574 16.126 66.464 16.126zM75.176 7.378C76.958 7.378 78.542 8.746 78.542 10.654 78.542 12.04 77.768 12.094 76.976 12.094L72.908 12.094 72.908 12.76C72.908 14.2 74.06 15.1 75.644 15.1 77.066 15.1 77.408 14.38 77.804 14.38 78.092 14.38 78.308 14.722 78.308 14.938 78.308 15.37 77.282 16.126 75.608 16.126 73.34 16.126 71.738 14.758 71.738 12.706L71.738 10.69C71.738 8.89 73.286 7.378 75.176 7.378zM72.908 11.23L76.508 11.23C77.228 11.23 77.408 11.122 77.408 10.618 77.408 9.466 76.49 8.35 75.158 8.35 73.916 8.35 72.908 9.34 72.908 10.546L72.908 11.23zM80.72 14.434C80.234 14.434 79.892 14.812 79.892 15.28 79.892 15.712 80.234 16.108 80.72 16.108 81.152 16.108 81.53 15.712 81.53 15.28 81.53 14.812 81.152 14.434 80.72 14.434zM83.96 3.472C83.51 3.472 83.15 3.814 83.15 4.21 83.15 4.606 83.51 4.966 83.96 4.966 84.392 4.966 84.734 4.606 84.734 4.21 84.734 3.814 84.392 3.472 83.96 3.472zM83.96 7.486C83.618 7.486 83.384 7.666 83.384 7.918L83.384 16.774C83.384 18.124 83.24 19.114 82.088 19.114 81.8 19.114 81.584 19.33 81.584 19.654 81.584 19.906 81.746 20.176 82.178 20.176 83.888 20.176 84.554 18.772 84.554 16.774L84.554 7.918C84.554 7.666 84.284 7.486 83.96 7.486zM89.072 15.136C87.452 15.136 87.092 14.29 86.696 14.29 86.462 14.29 86.282 14.596 86.282 14.83 86.282 15.37 87.416 16.126 89.108 16.126 90.944 16.126 92.006 15.226 92.006 13.804 92.006 10.528 87.542 11.824 87.542 9.772 87.542 9.178 88.01 8.368 89.342 8.368 90.404 8.368 90.962 8.872 91.25 8.872 91.538 8.872 91.736 8.458 91.736 8.26 91.736 7.828 90.512 7.378 89.324 7.378 87.272 7.378 86.48 8.674 86.48 9.826 86.48 12.814 90.926 11.464 90.926 13.858 90.926 14.542 90.44 15.136 89.072 15.136z"/>
    <g fill-rule="nonzero" transform="translate(28)">
      <polygon fill="#41B883" points="17.6 0 22 0 11 18.983 0 0 4.345 0 8.415 0 11 4.402 13.53 0"/>
      <polygon fill="#41B883" points="0 0 11 18.983 22 0 17.6 0 11 11.39 4.345 0"/>
      <polygon fill="#35495E" points="4.345 0 11 11.445 17.6 0 13.53 0 11 4.402 8.415 0"/>
    </g>
  </g>
</svg>
