<svg xmlns="http://www.w3.org/2000/svg" width="286" height="34" viewBox="0 0 286 34">
  <g fill="none" fill-rule="evenodd">
    <path fill="#FC0061" d="M0.677083333,29.0503472 C0.677083333,28.4936315 0.910298594,27.9971087 1.37673611,27.5607639 C1.84317363,27.1244191 2.20428113,26.8234962 2.46006944,26.6579861 C2.71585776,26.492476 2.88888844,26.3645838 2.97916667,26.2743056 C3.12963038,29.0127452 4.98030632,30.3819444 8.53125,30.3819444 C11.3298751,30.3819444 14.5948887,29.509268 18.3263889,27.7638889 C20.9745503,26.5601792 22.7499955,25.3263952 23.6527778,24.0625 C23.9537052,23.6712943 24.1041667,23.3478022 24.1041667,23.0920139 C24.1041667,22.8362256 24.0590282,22.6331026 23.96875,22.4826389 L5.23611111,18.2847222 C4.69444174,18.1643512 4.16782663,17.9085668 3.65625,17.5173611 C2.72337497,16.8553208 2.25694444,16.2534749 2.25694444,15.7118056 C2.25694444,13.6354063 3.73146674,11.7546381 6.68055556,10.0694444 C9.93057181,8.23378712 14.278908,6.8495417 19.7256944,5.91666667 C20.9594969,5.70601747 21.8773118,5.5856483 22.4791667,5.55555556 C22.6597231,5.61574104 22.9380768,5.66840255 23.3142361,5.71354167 C23.6903954,5.75868078 24.0740721,5.82638844 24.4652778,5.91666667 C25.3981528,6.12731587 25.7893526,6.51851566 25.6388889,7.09027778 C25.6388889,8.11343104 23.6828899,8.92592292 19.7708333,9.52777778 C14.7152525,10.2800964 11.5630849,10.9120345 10.3142361,11.4236111 C9.06538727,11.9351877 8.16261852,12.4618028 7.60590278,13.0034722 C7.04918703,13.5451416 6.75578719,14.1921259 6.72569444,14.9444444 C6.72569444,15.0949082 7.0717558,15.2604158 7.76388889,15.4409722 C8.45602198,15.6215287 9.28356,15.8396978 10.2465278,16.0954861 C11.2094956,16.3512744 12.4583257,16.6898127 13.9930556,17.1111111 C17.7245557,18.1342644 22.298584,19.4282329 27.7152778,20.9930556 C28.0162052,21.6550959 28.1666667,22.2719879 28.1666667,22.84375 C28.1666667,24.4386654 27.2338056,25.9733723 25.3680556,27.4479167 C23.2615635,29.1030175 20.3426112,30.5023091 16.6111111,31.6458333 C13.5115586,32.5787084 11.0439907,33.0451389 9.20833333,33.0451389 C7.67360344,33.0451389 6.21412729,32.7743083 4.82986111,32.2326389 C3.44559493,31.6909695 2.40741087,31.1643544 1.71527778,30.6527778 C1.02314469,30.1412011 0.677083333,29.607063 0.677083333,29.0503472 Z M48.0729167,20.5416667 C47.4108763,22.7384369 46.861692,24.7696666 46.4253472,26.6354167 C45.9890024,28.5011667 45.5601873,30.0509198 45.1388889,31.2847222 C44.4768485,33.0601941 43.7245412,33.9479167 42.8819444,33.9479167 C42.4305533,33.9479167 41.9189843,33.7372706 41.3472222,33.3159722 C39.962956,31.8414278 38.0069571,28.5764142 35.4791667,23.5208333 C33.0115617,18.5856235 31.7777778,15.5011636 31.7777778,14.2673611 C31.7777778,13.7256917 31.9432854,13.3871535 32.2743056,13.2517361 C32.6053257,13.1163188 32.9814794,13.1087957 33.4027778,13.2291667 C34.425931,13.5300941 35.148146,13.9965246 35.5694444,14.6284722 C35.7800936,14.9293997 36.0358781,15.4560148 36.3368056,16.2083333 L37.4652778,19.0069444 C38.729173,22.1666825 39.9780031,25.0555425 41.2118056,27.6736111 C41.8738459,26.6504578 42.505784,25.326397 43.1076389,23.7013889 L44.5069444,19.8194444 C45.7106542,16.4189645 46.7939767,14.6886577 47.7569444,14.6284722 C48.509263,14.1469883 50.7661849,16.8101561 54.5277778,22.6180556 C56.1226932,25.0856605 57.1157388,26.5601828 57.5069444,27.0416667 C57.7777791,27.0416667 58.1012713,26.1388979 58.4774306,24.3333333 C58.8535898,22.5277687 59.1846051,21.0005849 59.4704861,19.7517361 C59.7563672,18.5028873 60.1099516,17.336811 60.53125,16.2534722 C61.5243105,13.7256818 62.6678176,12.4618056 63.9618056,12.4618056 C64.383104,12.4618056 64.6765038,12.6047439 64.8420139,12.890625 C65.007524,13.1765061 65.0902778,13.4097213 65.0902778,13.5902778 L65.0902778,13.9965278 C64.7291649,15.019681 64.3530112,16.1857573 63.9618056,17.4947917 C63.5705999,18.803826 63.1568309,20.142933 62.7204861,21.5121528 C62.2841413,22.8813726 61.8478031,24.2355257 61.4114583,25.5746528 C60.9751136,26.9137798 60.5462984,28.1249946 60.125,29.2083333 C59.1319395,31.5555673 58.3044015,32.8194435 57.6423611,33 C57.1307845,33.2407419 56.3032465,32.6539423 55.1597222,31.2395833 C54.6481456,30.577543 54.1064843,29.7951434 53.5347222,28.8923611 C52.9629601,27.9895788 52.3611143,27.0567178 51.7291667,26.09375 C50.1944368,23.6863306 48.975699,21.8356546 48.0729167,20.5416667 Z M77.5034722,29.8402778 C80.1516336,29.8402778 84.1388623,28.6365861 89.4652778,26.2291667 C89.796298,26.2291667 90.0671286,26.3420128 90.2777778,26.5677083 C90.488427,26.7934039 90.59375,27.0567115 90.59375,27.3576389 C89.3900403,29.4039454 87.08798,30.9988369 83.6875,32.1423611 C80.28702,33.2858853 77.1122833,33.4814852 74.1631944,32.7291667 C70.8229,31.8564771 68.7916703,29.9757089 68.0694444,27.0868056 C68.009259,26.5150434 67.9791667,25.74769 67.9791667,24.7847222 C67.9791667,23.8217544 68.2274281,22.5503551 68.7239583,20.9704861 C69.2204886,19.3906171 70.0705958,17.8935256 71.2743056,16.4791667 C72.4780153,15.0648077 73.892353,13.951393 75.5173611,13.1388889 C77.1423692,12.3263848 78.872676,11.9201389 80.7083333,11.9201389 C82.4537124,11.9201389 84.4097114,12.5219847 86.5763889,13.7256944 C87.5995422,14.2974566 88.412034,14.9444408 89.0138889,15.6666667 C89.6157437,16.3888925 89.9166667,17.1261536 89.9166667,17.8784722 C89.9166667,18.0891214 89.9016205,18.2997675 89.8715278,18.5104167 C89.8113423,20.346074 88.9236197,21.5046272 87.2083333,21.9861111 C86.4560148,22.1967603 85.5833383,22.3020833 84.5902778,22.3020833 L78.0902778,22.03125 C75.9236003,22.03125 74.2685242,22.4976805 73.125,23.4305556 C72.4629597,23.9421322 71.9965291,24.7094856 71.7256944,25.7326389 C72.478013,28.4710785 74.4039197,29.8402778 77.5034722,29.8402778 Z M85.5607639,15.8923611 C84.8836772,15.4108772 84.1840314,15.0648159 83.4618056,14.8541667 C82.7395797,14.6435175 82.1377339,14.5381944 81.65625,14.5381944 C81.1747661,14.5381944 80.3923665,14.696179 79.3090278,15.0121528 C78.225689,15.3281266 77.2627357,15.681711 76.4201389,16.0729167 C74.3437396,17.0358844 73.3055556,18.0439762 73.3055556,19.0972222 C75.712975,19.3078714 77.5185125,19.4131944 78.7222222,19.4131944 C82.0625167,19.4131944 84.3194386,19.1273177 85.4930556,18.5555556 C86.2152814,18.2546281 86.5763889,17.8784745 86.5763889,17.4270833 C86.5763889,16.885414 86.2378506,16.373845 85.5607639,15.8923611 Z M102.510417,29.8402778 C105.158578,29.8402778 109.145807,28.6365861 114.472222,26.2291667 C114.803242,26.2291667 115.074073,26.3420128 115.284722,26.5677083 C115.495371,26.7934039 115.600694,27.0567115 115.600694,27.3576389 C114.396985,29.4039454 112.094924,30.9988369 108.694444,32.1423611 C105.293964,33.2858853 102.119228,33.4814852 99.1701389,32.7291667 C95.8298444,31.8564771 93.7986147,29.9757089 93.0763889,27.0868056 C93.0162034,26.5150434 92.9861111,25.74769 92.9861111,24.7847222 C92.9861111,23.8217544 93.2343725,22.5503551 93.7309028,20.9704861 C94.227433,19.3906171 95.0775403,17.8935256 96.28125,16.4791667 C97.4849597,15.0648077 98.8992974,13.951393 100.524306,13.1388889 C102.149314,12.3263848 103.87962,11.9201389 105.715278,11.9201389 C107.460657,11.9201389 109.416656,12.5219847 111.583333,13.7256944 C112.606487,14.2974566 113.418978,14.9444408 114.020833,15.6666667 C114.622688,16.3888925 114.923611,17.1261536 114.923611,17.8784722 C114.923611,18.0891214 114.908565,18.2997675 114.878472,18.5104167 C114.818287,20.346074 113.930564,21.5046272 112.215278,21.9861111 C111.462959,22.1967603 110.590283,22.3020833 109.597222,22.3020833 L103.097222,22.03125 C100.930545,22.03125 99.2754687,22.4976805 98.1319444,23.4305556 C97.4699041,23.9421322 97.0034736,24.7094856 96.7326389,25.7326389 C97.4849575,28.4710785 99.4108641,29.8402778 102.510417,29.8402778 Z M110.567708,15.8923611 C109.890622,15.4108772 109.190976,15.0648159 108.46875,14.8541667 C107.746524,14.6435175 107.144678,14.5381944 106.663194,14.5381944 C106.181711,14.5381944 105.399311,14.696179 104.315972,15.0121528 C103.232633,15.3281266 102.26968,15.681711 101.427083,16.0729167 C99.3506841,17.0358844 98.3125,18.0439762 98.3125,19.0972222 C100.719919,19.3078714 102.525457,19.4131944 103.729167,19.4131944 C107.069461,19.4131944 109.326383,19.1273177 110.5,18.5555556 C111.222226,18.2546281 111.583333,17.8784745 111.583333,17.4270833 C111.583333,16.885414 111.244795,16.373845 110.567708,15.8923611 Z M125.125,28.6666667 L125.215278,21.4444444 C125.215278,20.3009202 125.109955,19.3229207 124.899306,18.5104167 L117.902778,18.5104167 L117.8125,15.3958333 L124.583333,15.3958333 L124.583333,3.75 C124.673612,3.47916531 124.854165,3.20833469 125.125,2.9375 C125.546298,2.5162016 125.899883,2.30555556 126.185764,2.30555556 C126.471645,2.30555556 126.719906,2.33564785 126.930556,2.39583333 C127.141205,2.45601882 127.366897,2.66666486 127.607639,3.02777778 C128.089123,5.01389882 128.329861,8.00808184 128.329861,12.0104167 C128.329861,13.0034772 128.375,13.9814767 128.465278,14.9444444 C129.428246,14.8240735 130.391199,14.7638889 131.354167,14.7638889 L133.701389,14.7638889 C134.273151,14.7638889 134.799766,14.7337966 135.28125,14.6736111 L135.145833,17.9236111 L128.555556,17.7430556 L128.78125,33.3159722 C128.239581,33.5567142 127.77315,33.6770833 127.381944,33.6770833 C125.877307,33.6770833 125.125,32.0069611 125.125,28.6666667 Z"/>
    <path fill="#FFFFFF" d="M180.820778,33.0462222 L186.922111,33.0462222 L186.922111,0.690666667 L179.942556,0.690666667 L169.819889,14.6035556 L159.697222,0.690666667 L152.671444,0.690666667 L152.671444,33.0462222 L158.772778,33.0462222 L158.772778,9.51911111 L169.080333,23.6168889 L170.282111,23.6168889 L180.820778,9.56533333 L180.820778,33.0462222 Z M203.654556,9.65777778 C196.397667,9.65777778 191.775444,15.112 191.775444,21.6293333 C191.775444,28.2853333 196.259,33.6471111 203.700778,33.6471111 C211.142556,33.6471111 215.672333,28.2853333 215.672333,21.6293333 C215.672333,15.112 210.957667,9.65777778 203.654556,9.65777778 Z M203.700778,14.8808889 C207.491,14.8808889 209.894556,18.2088889 209.894556,21.6293333 C209.894556,25.0497778 207.814556,28.3777778 203.700778,28.3777778 C199.587,28.3777778 197.507,25.0497778 197.507,21.6293333 C197.507,18.2088889 199.633222,14.8808889 203.700778,14.8808889 Z M231.064333,14.9271111 C234.623444,14.9271111 237.674111,17.6542222 237.674111,21.5831111 C237.674111,25.7431111 234.623444,28.3315556 231.064333,28.3315556 C227.459,28.3315556 224.593222,25.6044444 224.593222,21.5831111 C224.593222,17.4693333 227.505222,14.9271111 231.064333,14.9271111 Z M238.043889,0.690666667 L238.043889,13.3093333 C236.657222,10.9057778 232.959444,9.65777778 230.555889,9.65777778 C223.899889,9.65777778 218.954111,13.7253333 218.954111,21.5831111 C218.954111,29.0711111 224.038556,33.6471111 230.694556,33.6471111 C233.467889,33.6471111 236.241222,32.8151111 238.043889,29.8568889 L238.413667,33 L243.683,33 L243.683,0.690666667 L238.043889,0.690666667 Z M267.579889,13.3555556 C266.285667,11.0906667 263.419889,9.65777778 260.323,9.65777778 C253.667,9.65777778 248.443889,13.6328889 248.443889,21.5831111 C248.443889,29.5795556 253.389667,33.6933333 260.184333,33.6933333 C262.772778,33.6933333 266.239444,32.3528889 267.579889,29.672 L267.857222,33 L273.172778,33 L273.172778,10.2124444 L267.764778,10.2124444 L267.579889,13.3555556 Z M260.831444,14.696 C269.706111,14.696 269.706111,28.5164444 260.831444,28.5164444 C257.087444,28.5164444 254.083,25.928 254.083,21.5831111 C254.083,17.2382222 257.087444,14.696 260.831444,14.696 Z M279.412778,0.690666667 L279.412778,33 L285.005667,33 L285.005667,0.690666667 L279.412778,0.690666667 Z"/>
  </g>
</svg>
